PathFileType	4	(X/Y/Z)	path1_09_0-604.trc
DataRate	CameraRate	NumFrames	NumMarkers	Units	OrigDataRate	OrigDataStartFrame	OrigNumFrames
30	30	9	22	m	30	528	604
Frame#	Time	Hip			RHip			RKnee			RAnkle			RBigToe			RSmallToe			RHeel			LHip			LKnee			LAnkle			LBigToe			LSmallToe			LHeel			Neck			Head			Nose			RShoulder			RElbow			RWrist			LShoulder			LElbow			LWrist		
		X1	Y1	Z1	X2	Y2	Z2	X3	Y3	Z3	X4	Y4	Z4	X5	Y5	Z5	X6	Y6	Z6	X7	Y7	Z7	X8	Y8	Z8	X9	Y9	Z9	X10	Y10	Z10	X11	Y11	Z11	X12	Y12	Z12	X13	Y13	Z13	X14	Y14	Z14	X15	Y15	Z15	X16	Y16	Z16	X17	Y17	Z17	X18	Y18	Z18	X19	Y19	Z19	X20	Y20	Z20	X21	Y21	Z21	X22	Y22	Z22
529	17.633333333333333	-2.3918764028962327	0.8029480122133672	0.8868223579752235	-2.397413327453787	0.7613662920367267	0.7992673341975169	-2.334097547538891	0.4356065451795338	0.7829154197447741	-2.28273087016553	0.06536569697838403	0.7953633221567779	-2.4588481849201806	-0.028064457372696538	0.7881902298289304	-2.429121765897248	-0.03990611773588443	0.7420840777840623	-2.23758119043135	-0.004930790244890219	0.806323286440569	-2.379307969020361	0.760717410412137	0.9623458202443017	-2.3507083421937636	0.4100322298135565	0.9629508988093964	-2.2859826887522003	0.05564413162858209	0.9401705191777413	-2.4449000418963176	-0.024809170973475677	0.9641160247661789	-2.4631328275444244	-0.041614412320477225	0.9865703097807026	-2.2475646351656415	-0.015150443940014377	0.9346853961048817	-2.3582389105193875	1.4385763337886217	0.8984618695359197	-2.4408146497588135	1.6530833927549629	0.8954038788576053	-2.4736315808061713	1.5049594776557083	0.9643456575807846	-2.332818037314507	1.3355359516741587	0.7206961776532728	-2.2958741015810182	1.0536265836948489	0.6795909871995699	-2.3223241110878488	0.8087850821057915	0.6715956591119131	-2.351704756207452	1.3166008256019266	1.07912612723002	-2.339069475753097	1.0476477362494208	1.0948511072206641	-2.364699180523958	0.8028633885856322	1.0922689758512167
530	17.666666666666668	-2.3914952167713492	0.8034712000408974	0.8868811829315846	-2.3968535324723512	0.7606561172390909	0.799712788011433	-2.3335990463887244	0.4356499160306658	0.782893328114429	-2.2828188063798063	0.06544476431281718	0.7955343194370257	-2.459137274625698	-0.027679033530465028	0.7877007769149253	-2.429480206892592	-0.039794412673670176	0.7422445822234908	-2.2377200604862275	-0.004835299181728913	0.8063238656934179	-2.3787332617193053	0.760225776606664	0.9626720518709657	-2.35755840894283	0.4098079875094135	0.9638738573815142	-2.2860398923340908	0.055454553279007286	0.9403247529042245	-2.4454877085596634	-0.02430604800123161	0.9635136826263492	-2.4650911167849374	-0.04209558952711946	0.9858621436131312	-2.24803457291969	-0.015390757792353231	0.9347721018260433	-2.3578361092142495	1.4386589527324494	0.8974361830346678	-2.439359885056602	1.6543405035423753	0.8943334619999279	-2.473294012728605	1.5050819133955409	0.9633317461340362	-2.3323641120968452	1.3357253174934738	0.7203016742625791	-2.2959905792053417	1.0534144492459354	0.6793994130142125	-2.322550922563441	0.8084437635099746	0.6719509515952232	-2.351581097348772	1.3166233289973592	1.0787435357024477	-2.339204014149453	1.0482146418734455	1.094610122740463	-2.3650353340782404	0.8036137841664894	1.0927496370443204
531	17.7	-2.3911146334539315	0.8040166620699256	0.886900643657395	-2.39659392752707	0.7607802016452484	0.8000987679177471	-2.3333279032862966	0.43572988741925806	0.7829979550107604	-2.2828822474086046	0.0654503840712373	0.7956008387967493	-2.459273995772638	-0.027439528805341878	0.7873060341756969	-2.4297804692355247	-0.039846985321190825	0.742803243469312	-2.237715898474112	-0.004643495621452585	0.8063265643019383	-2.3783586874688094	0.760501909405178	0.9632173221926762	-2.359884557800965	0.41020113344883596	0.9642513555760067	-2.285987766504351	0.055396948411801844	0.9406317707837659	-2.4457493917808457	-0.02381899188835769	0.9629837281203507	-2.4710021967077758	-0.043822266606324684	0.9842006551766292	-2.2481588172779157	-0.015357964241842456	0.9349759113091611	-2.3574734397781976	1.4386827171888912	0.8964818746116736	-2.4355616115915457	1.655339398171828	0.8945229698381816	-2.472705590903455	1.505132181800707	0.9630787639434821	-2.3320134816714715	1.335831166476466	0.7197923912764017	-2.2959846665722363	1.053053147508365	0.679406601808419	-2.3225953156905055	0.8080490285411079	0.6722109133184581	-2.3514418941037443	1.3167888578266203	1.078582399857882	-2.3392506481865563	1.048620477977521	1.094596630104473	-2.365570878057349	0.803854543722807	1.09322854737795
532	17.733333333333334	-2.3907970679581583	0.8045298170024014	0.8868984862122097	-2.3965725764844357	0.7616822521060609	0.8003791721818672	-2.3332889112706816	0.4357959839752255	0.7831587467608532	-2.2829043386951704	0.06537785908239994	0.7955309865849919	-2.459260105517263	-0.027355153692061138	0.787084995353364	-2.429948141889101	-0.040078578633889674	0.7436058710790409	-2.237574128852404	-0.004393513364765088	0.806352059018541	-2.378180194709717	0.7614925821875392	0.9638328112868894	-2.3561682046115195	0.41114424462814947	0.9638570661815203	-2.2859193698706797	0.055466711129421996	0.9410654645392053	-2.4456814539637857	-0.02325949158039916	0.9625416786739048	-2.479765419099895	-0.0464654319577362	0.982007848789916	-2.2479917037758765	-0.01515042339401082	0.935287593358064	-2.3571131345092624	1.4386178082498993	0.8956108512106433	-2.428999529360031	1.6557089243054555	0.896165951317891	-2.4719315810432763	1.5049815696486042	0.9635584761144088	-2.3317137367215612	1.3358537146482963	0.7191998302814876	-2.295860838945221	1.0525728498970135	0.6795863910114626	-2.3224054631587028	0.8075855369012878	0.6723727210461276	-2.351275187182328	1.3170309077608462	1.0786969547944267	-2.339095166237251	1.0489387322391195	1.0948008055898544	-2.366075262233297	0.8038772692140175	1.093602011710084
533	17.766666666666666	-2.3905932274315194	0.8049153568515304	0.8869451818213641	-2.396660841730319	0.7630199153354362	0.8005733904168902	-2.3334022992613015	0.43577560130242604	0.7832860124772905	-2.2828641398812026	0.06522164778520312	0.7953468732046182	-2.4591672885314253	-0.027365373547433576	0.7870636250092772	-2.429966961529802	-0.04046542622383946	0.7444557410051187	-2.2373142945001168	-0.004158795598549422	0.8063800017010401	-2.3781830926473324	0.7628777214243297	0.9643857777395967	-2.348191118889487	0.4123109134311562	0.96290728196773	-2.285893876826709	0.05562976927310996	0.9414989883997542	-2.4453863603359136	-0.022598658712518784	0.9622595984756942	-2.4891478820518342	-0.04932427603166878	0.9798938384174769	-2.2476038720838343	-0.014899302119951306	0.9356367105260246	-2.3566544508980805	1.4384937359864687	0.894774715719084	-2.4194092735269557	1.6547182417355923	0.8994337362495659	-2.4710505102961418	1.504565226035181	0.9644871781977595	-2.3313893791631495	1.3358181937001663	0.718520926414322	-2.2956585742348774	1.0520725183641402	0.6798393526042548	-2.3220363401082538	0.8070929348373937	0.6724451487272256	-2.3510007699267876	1.3172618064713788	1.0789954617199102	-2.338743270906915	1.0492389408210416	1.0951024977019295	-2.3663779977602686	0.8040376048595597	1.0938195115831557
534	17.8	-2.3905137931336458	0.8050940512178989	0.887084513571154	-2.3967170056003755	0.764381034038275	0.8007305425379749	-2.33354468764236	0.43564859667172123	0.7833418891205693	-2.282754394493617	0.0650047650313208	0.7950958915364988	-2.459090618205779	-0.027347525714074096	0.7871902498875261	-2.429870762955919	-0.04086749449392941	0.7451935055400534	-2.2369766196534577	-0.003993003069338547	0.806361692143547	-2.3783270398660425	0.7642508550806367	0.9648047200568769	-2.33953347159718	0.41333358606198345	0.9618782104732546	-2.28593253217364	0.05583896358949625	0.9418108431174694	-2.4450056629175387	-0.021884066755849817	0.962255440483184	-2.496890956860256	-0.05169879687892507	0.9783769644167606	-2.2471075707325405	-0.014673202829217288	0.9359414000406965	-2.356015290339771	1.438389538111915	0.893953382577082	-2.4087014788942045	1.6533992514824796	0.9031171292122547	-2.4701252506806166	1.503986480806367	0.9654078110802189	-2.331002958582628	1.3357346559271353	0.7177315103823871	-2.2953981790669884	1.0516707506630745	0.6800643645849683	-2.3216056001390504	0.8066684295186277	0.6724462222725657	-2.3505490949313343	1.3174613939549562	1.0792846372205207	-2.3383012846049347	1.0495494223451154	1.0953475569504512	-2.366436235633459	0.804507623107554	1.0939075774282365
535	17.833333333333332	-2.3905333077629605	0.8050370248536165	0.8872922561813024	-2.3966335735286566	0.7654428298173458	0.8008890079744464	-2.3336132502102984	0.43545471332190305	0.7833294381828835	-2.282584285167328	0.0647895418649907	0.7948152766933653	-2.459061852726562	-0.027199405859694242	0.7873679817263487	-2.4296814271264155	-0.04109382123777731	0.7457405882058605	-2.236602830356041	-0.0039017766418613918	0.8062815403690181	-2.3785242356158567	0.7652897942974445	0.9651108309524078	-2.332908081419909	0.4139920741097656	0.9611658813881241	-2.2860247785271057	0.0560387577005429	0.941970807385652	-2.444664454692437	-0.0212121118895467	0.962587864464573	-2.5019861662875664	-0.05330452179525148	0.9776197905641915	-2.2466536221656175	-0.01448830111452574	0.9361332198009711	-2.355190414435574	1.438363618586415	0.8932025763103465	-2.399693257244598	1.6540374825781312	0.9050672585763955	-2.469186746275381	1.5034517715095823	0.9659380377139957	-2.330590404848604	1.3355859016344875	0.7168296419477561	-2.2950611502016858	1.0514377864337385	0.6801785543552649	-2.321209025655818	0.8064208896963487	0.6723870129588952	-2.349935788982104	1.3176670931451062	1.079388436596773	-2.3379049383525885	1.0498378914847808	1.0954358341885746	-2.366325646854921	0.8052117937447387	1.0939576518269516
536	17.866666666666667	-2.390567723803213	0.8047773002721553	0.8875190621598158	-2.396350869777301	0.7660107665362572	0.8010508072000648	-2.333583601986101	0.4352374900236655	0.7832502290392258	-2.282344433911086	0.06463751011431136	0.7945335232211082	-2.459026873400329	-0.02695415423115736	0.787551553624139	-2.4293801377559547	-0.04106782338774908	0.7460959559833118	-2.2362117041212093	-0.003877006990792581	0.8061665475282809	-2.3786711971277206	0.7658251540922414	0.96537837647181	-2.329070802533201	0.41423334550570495	0.9609061277850522	-2.2861155529842376	0.05616975356283936	0.9419893290762724	-2.444436188559764	-0.020740129868567863	0.9631863838150521	-2.504600086371551	-0.05423859298172405	0.9774804259620161	-2.246359835364247	-0.014355985309049517	0.936141280222624	-2.3542521888858	1.438415591476443	0.8925979421979643	-2.394109251793207	1.6574356689354746	0.9036647338377689	-2.4682497037833353	1.503104982343966	0.9659568444174906	-2.3302268156273733	1.3353829052704715	0.7158828362647695	-2.294645887604092	1.0513827515614294	0.6801054594510016	-2.320889400862046	0.8064123386146925	0.6722316832417949	-2.3492622745087166	1.3179115337787495	1.0792189458842525	-2.337653530307818	1.0500253384284277	1.0953386649767738	-2.3661617702782114	0.8059517458768896	1.0940428798604207
537	17.9	-2.3904594830836654	0.8044141624712532	0.8877260786458376	-2.395847705710232	0.7660364669191624	0.8011677975319234	-2.3334899450822273	0.43501819299911854	0.7831177125090261	-2.2820205776881006	0.06457545833238337	0.7942814053723043	-2.4589113436929364	-0.026734362206484973	0.7877648714822808	-2.4289473485557385	-0.04086324095614048	0.7462765929194092	-2.235832824972965	-0.003918331569370627	0.8060426688360433	-2.3786859833821214	0.7658225080370474	0.965640900090079	-2.3275017627146193	0.41409803136733386	0.9609910335899771	-2.2861594572638495	0.05618689550676095	0.941873885325291	-2.4443799855619157	-0.02062617511353005	0.9638760129627126	-2.505477845461466	-0.0547322999788855	0.9776959388453313	-2.2463043223896806	-0.014310212043392426	0.9359313081020135	-2.353319387564717	1.4385085115931617	0.8921439640725223	-2.392809842121788	1.6623283325128515	0.8979237935766201	-2.4673333531312416	1.5029468754741642	0.9655685226683896	-2.329940792523911	1.3352125920366764	0.7150380906600441	-2.2942079561767135	1.0514979406538196	0.6797877852416578	-2.320650814818951	0.806621485070817	0.6719406459535385	-2.3486437701819765	1.3181856005046761	1.078797161977596	-2.3375618313430757	1.0500434252848379	1.0950917227486554	-2.366027421864493	0.8065378126461488	1.0941664419388182
